<svg width="3303" height="1065" xmlns="http://www.w3.org/2000/svg" xmlns:xlink="http://www.w3.org/1999/xlink" overflow="hidden"><defs><clipPath id="clip0"><rect x="609" y="607" width="3303" height="1065"/></clipPath></defs><g clip-path="url(#clip0)" transform="translate(-609 -607)"><path d="M642.5 1037.5 3882.34 1037.5" stroke="#0070C0" stroke-width="6.875" stroke-miterlimit="8" stroke-dasharray="27.5 20.625" fill="none" fill-rule="evenodd"/><path d="M1849.5 750.334C1849.5 722.812 1871.81 700.5 1899.33 700.5L3019.67 700.5C3047.19 700.5 3069.5 722.812 3069.5 750.334L3069.5 949.666C3069.5 977.189 3047.19 999.5 3019.67 999.5L1899.33 999.5C1871.81 999.5 1849.5 977.189 1849.5 949.666Z" stroke="#000000" stroke-width="6.875" stroke-miterlimit="8" stroke-dasharray="6.875 6.875" fill="#DAE3F3" fill-rule="evenodd"/><path d="M1399.5 1149.83C1399.5 1119.83 1423.83 1095.5 1453.83 1095.5L3451.17 1095.5C3481.17 1095.5 3505.5 1119.83 3505.5 1149.83L3505.5 1367.17C3505.5 1397.17 3481.17 1421.5 3451.17 1421.5L1453.83 1421.5C1423.83 1421.5 1399.5 1397.17 1399.5 1367.17Z" stroke="#000000" stroke-width="4.58333" stroke-miterlimit="8" fill="#FFF2CC" fill-rule="evenodd"/><rect x="3299.5" y="817.5" width="542" height="116" stroke="#000000" stroke-width="4.58333" stroke-miterlimit="8" fill="none"/><text font-family="Calibri,Calibri_MSFontService,sans-serif" font-weight="400" font-size="64" transform="matrix(1 0 0 1 3502.09 897)">RGFT</text><rect x="1059.5" y="818.5" width="540" height="116" stroke="#000000" stroke-width="4.58333" stroke-miterlimit="8" fill="none"/><text font-family="Calibri,Calibri_MSFontService,sans-serif" font-weight="400" font-size="64" transform="matrix(1 0 0 1 1278.05 898)">GFT</text><path d="M0.00515972-3.4375 20.6301-3.40654 20.6198 3.46845-0.00515972 3.4375ZM27.5051-3.39622 48.1301-3.36526 48.1198 3.50973 27.4948 3.47877ZM55.0051-3.35494 75.6301-3.32398 75.6198 3.55101 54.9948 3.52005ZM82.5051-3.31366 103.13-3.2827 103.12 3.59229 82.4948 3.56133ZM110.005-3.27239 130.63-3.24143 130.62 3.63357 109.995 3.60261ZM137.505-3.23111 158.13-3.20015 158.12 3.67484 137.495 3.64388ZM165.005-3.18983 185.63-3.15887 185.62 3.71612 164.995 3.68516ZM192.505-3.14855 213.13-3.11759 213.12 3.7574 192.495 3.72644ZM220.005-3.10727 240.63-3.07632 240.62 3.79868 219.995 3.76772ZM247.505-3.066 268.13-3.03504 268.12 3.83995 247.495 3.809ZM275.005-3.02472 277.389-3.02114 277.379 3.85385 274.995 3.85027ZM272.821-13.3405 300.3 0.450755 272.78 14.1595Z" transform="matrix(1 0 0 -1 1599.5 876.951)"/><rect x="1899.5" y="799.5" width="463" height="154" stroke="#000000" stroke-width="4.58333" stroke-miterlimit="8" fill="#8FAADC"/><text font-family="Calibri,Calibri_MSFontService,sans-serif" font-weight="400" font-size="64" transform="matrix(1 0 0 1 1933.77 897)">Linear <tspan font-size="64" x="175.313" y="0">function</tspan></text><rect x="2562.5" y="798.5" width="463" height="154" stroke="#000000" stroke-width="4.58333" stroke-miterlimit="8" fill="#8FAADC"/><text font-family="Calibri,Calibri_MSFontService,sans-serif" font-weight="400" font-size="64" transform="matrix(1 0 0 1 2664.55 858)">Nonlinear <tspan font-size="64" x="0.18335" y="77">activation</tspan></text><path d="M0.00553434-3.4375 20.6305-3.40429 20.6194 3.4707-0.00553434 3.4375ZM27.5055-3.39322 48.1305-3.36001 48.1194 3.51498 27.4944 3.48177ZM55.0055-3.34895 75.6304-3.31574 75.6194 3.55925 54.9944 3.52604ZM82.5054-3.30467 103.13-3.27147 103.119 3.60353 82.4944 3.57032ZM110.005-3.2604 130.63-3.22719 130.619 3.6478 109.994 3.61459ZM137.505-3.21612 158.13-3.18292 158.119 3.69208 137.494 3.65887ZM165.005-3.17185 177.262-3.15211 177.251 3.72288 164.994 3.70314ZM172.695-13.472 200.173 0.322277 172.651 14.028Z" transform="matrix(1 0 0 -1 2362.5 875.822)"/><path d="M3025.5 872.063 3046.12 872.063 3046.12 878.938 3025.5 878.938ZM3053 872.063 3073.62 872.063 3073.62 878.938 3053 878.938ZM3080.5 872.063 3101.12 872.063 3101.12 878.938 3080.5 878.938ZM3108 872.063 3128.62 872.063 3128.62 878.938 3108 878.938ZM3135.5 872.063 3156.12 872.063 3156.12 878.938 3135.5 878.938ZM3163 872.063 3183.62 872.063 3183.62 878.938 3163 878.938ZM3190.5 872.063 3211.12 872.063 3211.12 878.938 3190.5 878.938ZM3218 872.063 3238.62 872.063 3238.62 878.938 3218 878.938ZM3245.5 872.063 3266.12 872.063 3266.12 878.938 3245.5 878.938ZM3273 872.063 3276.57 872.063 3276.57 878.938 3273 878.938ZM3271.99 861.75 3299.49 875.5 3271.99 889.25Z"/><text fill="#FF0000" font-family="Calibri,Calibri_MSFontService,sans-serif" font-weight="400" font-size="64" transform="matrix(1 0 0 1 1870.54 777)">Information gain/loss</text><rect x="1973.5" y="1193.5" width="389" height="154" stroke="#000000" stroke-width="4.58333" stroke-miterlimit="8" fill="#FFD966"/><text font-family="Calibri,Calibri_MSFontService,sans-serif" font-weight="400" font-size="64" transform="matrix(1 0 0 1 2087.2 1253)">Graph <tspan font-size="64" x="-74.0438" y="77">convolution</tspan></text><rect x="2621.5" y="1194.5" width="301" height="154" stroke="#000000" stroke-width="4.58333" stroke-miterlimit="8" fill="#FFD966"/><text font-family="Calibri,Calibri_MSFontService,sans-serif" font-weight="400" font-size="64" transform="matrix(1 0 0 1 2660.62 1254)">Bijective <tspan font-size="64" x="1.6958" y="77">function</tspan></text><rect x="1457.5" y="1193.5" width="301" height="154" stroke="#000000" stroke-width="4.58333" stroke-miterlimit="8" fill="#FFD966"/><text font-family="Calibri,Calibri_MSFontService,sans-serif" font-weight="400" font-size="64" transform="matrix(1 0 0 1 1497.05 1253)">Bijective <tspan font-size="64" x="1.6958" y="77">function</tspan></text><path d="M1758.51 1267.06 1949.97 1267.63 1949.95 1274.5 1758.49 1273.94ZM1945.42 1257.3 1972.88 1271.13 1945.34 1284.8Z" fill="#FF0000"/><path d="M2362.51 1267.06 2598.66 1267.73 2598.64 1274.6 2362.49 1273.94ZM2594.11 1257.4 2621.57 1271.23 2594.03 1284.9Z" fill="#FF0000"/><path d="M1327.36 1500.63 1327.32 1480 1334.19 1479.98 1334.24 1500.61ZM1327.3 1473.13 1327.25 1452.5 1334.13 1452.48 1334.18 1473.11ZM1327.24 1445.63 1327.19 1425 1334.07 1424.98 1334.11 1445.61ZM1327.17 1418.13 1327.13 1397.5 1334 1397.48 1334.05 1418.11ZM1327.11 1390.63 1327.06 1370 1333.94 1369.99 1333.99 1390.61ZM1327.05 1363.13 1327 1342.5 1333.88 1342.49 1333.92 1363.11ZM1326.98 1335.63 1326.94 1315 1333.81 1314.99 1333.86 1335.61ZM1326.92 1308.13 1326.87 1287.5 1333.75 1287.49 1333.8 1308.11ZM1326.86 1280.63 1326.81 1260 1333.69 1259.99 1333.73 1280.61ZM1326.8 1253.13 1326.75 1232.5 1333.62 1232.49 1333.67 1253.11ZM1326.73 1225.63 1326.68 1205 1333.56 1204.99 1333.61 1225.61ZM1326.67 1198.13 1326.62 1177.5 1333.5 1177.49 1333.54 1198.11ZM1326.61 1170.63 1326.56 1150 1333.43 1149.99 1333.48 1170.61ZM1326.54 1143.13 1326.49 1122.5 1333.37 1122.49 1333.42 1143.11ZM1326.48 1115.63 1326.43 1095 1333.31 1094.99 1333.35 1115.61ZM1326.42 1088.13 1326.37 1067.5 1333.24 1067.49 1333.29 1088.11ZM1326.35 1060.63 1326.31 1040 1333.18 1039.99 1333.23 1060.61ZM1326.29 1033.13 1326.24 1012.5 1333.12 1012.49 1333.16 1033.11ZM1326.23 1005.63 1326.18 985.002 1333.05 984.986 1333.1 1005.61ZM1326.16 978.127 1326.12 957.502 1332.99 957.486 1333.04 978.111ZM1315.81 962.032 1329.5 934.5 1343.31 961.969Z"/><text font-family="Calibri,Calibri_MSFontService,sans-serif" font-weight="400" font-size="64" transform="matrix(1 0 0 1 1105.44 1577)">Representation <tspan font-style="italic" font-weight="700" font-size="64" x="413.715" y="0">X</tspan></text><path d="M3573.94 933.5 3573.94 954.125 3567.06 954.125 3567.06 933.5ZM3573.94 961 3573.94 981.625 3567.06 981.625 3567.06 961ZM3573.94 988.5 3573.94 1009.13 3567.06 1009.13 3567.06 988.5ZM3573.94 1016 3573.94 1036.63 3567.06 1036.63 3567.06 1016ZM3573.94 1043.5 3573.94 1064.13 3567.06 1064.13 3567.06 1043.5ZM3573.94 1071 3573.94 1091.63 3567.06 1091.63 3567.06 1071ZM3573.94 1098.5 3573.94 1119.13 3567.06 1119.13 3567.06 1098.5ZM3573.94 1126 3573.94 1146.63 3567.06 1146.63 3567.06 1126ZM3573.94 1153.5 3573.94 1174.13 3567.06 1174.13 3567.06 1153.5ZM3573.94 1181 3573.94 1201.63 3567.06 1201.63 3567.06 1181ZM3573.94 1208.5 3573.94 1229.13 3567.06 1229.13 3567.06 1208.5ZM3573.94 1236 3573.94 1256.63 3567.06 1256.63 3567.06 1236ZM3573.94 1263.5 3573.94 1284.13 3567.06 1284.13 3567.06 1263.5ZM3573.94 1291 3573.94 1311.63 3567.06 1311.63 3567.06 1291ZM3573.94 1318.5 3573.94 1339.13 3567.06 1339.13 3567.06 1318.5ZM3573.94 1346 3573.94 1366.63 3567.06 1366.63 3567.06 1346ZM3573.94 1373.5 3573.94 1394.13 3567.06 1394.13 3567.06 1373.5ZM3573.94 1401 3573.94 1421.63 3567.06 1421.63 3567.06 1401ZM3573.94 1428.5 3573.94 1449.13 3567.06 1449.13 3567.06 1428.5ZM3573.94 1456 3573.94 1476.63 3567.06 1476.63 3567.06 1456ZM3584.25 1474.24 3570.5 1501.74 3556.75 1474.24Z"/><text font-family="Calibri,Calibri_MSFontService,sans-serif" font-weight="400" font-size="64" transform="matrix(1 0 0 1 2405.87 687)">n <tspan font-family="DengXian,DengXian_MSFontService,sans-serif" font-size="64" x="48.125" y="0">ⅹ</tspan><tspan font-size="64" x="936.911" y="891">Representation </tspan><tspan font-style="italic" font-weight="700" font-size="64" x="1350.63" y="891">H</tspan></text><path d="M2771.5 984.5 2793.5 962.5 2815.5 984.5 2804.5 984.5 2804.5 1163.5 2815.5 1163.5 2793.5 1185.5 2771.5 1163.5 2782.5 1163.5 2782.5 984.5Z" stroke="#000000" stroke-width="4.58333" stroke-miterlimit="8" fill="none" fill-rule="evenodd"/><path d="M2106.5 984.5 2128.5 962.5 2150.5 984.5 2139.5 984.5 2139.5 1163.5 2150.5 1163.5 2128.5 1185.5 2106.5 1163.5 2117.5 1163.5 2117.5 984.5Z" stroke="#000000" stroke-width="4.58333" stroke-miterlimit="8" fill="none" fill-rule="evenodd"/><path d="M3.4375-8.09136e-06 3.43781 130.403-3.43719 130.403-3.4375 8.09136e-06ZM13.7503 125.82 0.000360892 153.32-13.7497 125.82Z" fill="#FF0000" transform="matrix(1 0 0 -1 1492.5 1500.82)"/><path d="M1915.5 1189.5C1915.5 1169.62 1931.62 1153.5 1951.5 1153.5L2936.5 1153.5C2956.38 1153.5 2972.5 1169.62 2972.5 1189.5L2972.5 1333.5C2972.5 1353.38 2956.38 1369.5 2936.5 1369.5L1951.5 1369.5C1931.62 1369.5 1915.5 1353.38 1915.5 1333.5Z" stroke="#000000" stroke-width="6.875" stroke-miterlimit="8" stroke-dasharray="6.875 6.875" fill="none" fill-rule="evenodd"/><text font-family="Calibri,Calibri_MSFontService,sans-serif" font-weight="400" font-size="64" transform="matrix(1 0 0 1 2404.82 1140)">n <tspan font-family="DengXian,DengXian_MSFontService,sans-serif" font-size="64" x="48.125" y="0">ⅹ</tspan></text><rect x="3152.5" y="1193.5" width="301" height="154" stroke="#000000" stroke-width="4.58333" stroke-miterlimit="8" fill="#FFD966"/><text font-family="Calibri,Calibri_MSFontService,sans-serif" font-weight="400" font-size="64" transform="matrix(1 0 0 1 3191.41 1253)">Bijective <tspan font-size="64" x="1.6958" y="77">function</tspan></text><path d="M0.0203682-3.43744 206.963-2.21122 206.922 4.66366-0.0203682 3.43744ZM202.441-12.5507 229.859 1.36201 202.278 14.9488Z" fill="#FF0000" transform="matrix(1 0 0 -1 2922.5 1271.86)"/><path d="M3425.94 1347.5 3425.94 1477.9 3419.06 1477.9 3419.06 1347.5ZM3436.25 1473.32 3422.5 1500.82 3408.75 1473.32Z" fill="#FF0000"/><path d="M1543.5 963.5 1565.5 941.5 1587.5 963.5 1576.5 963.5 1576.5 1152.5 1587.5 1152.5 1565.5 1174.5 1543.5 1152.5 1554.5 1152.5 1554.5 963.5Z" stroke="#000000" stroke-width="4.58333" stroke-miterlimit="8" fill="none" fill-rule="evenodd"/><path d="M3306.5 963.5 3328.5 941.5 3350.5 963.5 3339.5 963.5 3339.5 1155.5 3350.5 1155.5 3328.5 1177.5 3306.5 1155.5 3317.5 1155.5 3317.5 963.5Z" stroke="#000000" stroke-width="4.58333" stroke-miterlimit="8" fill="none" fill-rule="evenodd"/><text font-family="Calibri,Calibri_MSFontService,sans-serif" font-weight="400" font-size="64" transform="matrix(1 0 0 1 2364.29 1539)">Entity <tspan font-size="64" x="22.7105" y="77">Text</tspan></text><rect x="2656.5" y="1482.5" width="532" height="149" stroke="#000000" stroke-width="4.58333" stroke-miterlimit="8" fill="#E2F0D9"/><text font-family="Calibri,Calibri_MSFontService,sans-serif" font-weight="400" font-size="64" transform="matrix(1 0 0 1 2768.12 1539)">Knowledge<tspan font-size="64" x="288.108" y="0">-</tspan><tspan font-size="64" x="-22.9395" y="77">enhanced LM</tspan></text><rect x="1695.5" y="1482.5" width="532" height="148" stroke="#000000" stroke-width="4.58333" stroke-miterlimit="8" fill="#E2F0D9"/><text font-family="Calibri,Calibri_MSFontService,sans-serif" font-weight="400" font-size="64" transform="matrix(1 0 0 1 1775.51 1578)">Pretrained LM</text><path d="M0.0102646-2.29164 73.3767-1.96302 73.3561 2.62026-0.0102646 2.29164ZM68.8447-13.4418 96.2828 0.431266 68.7215 14.058Z" transform="matrix(1 0 0 -1 2559.5 1556.93)"/><path d="M2321.76 1559.54 2250.4 1558.97 2250.43 1554.39 2321.8 1554.95ZM2254.89 1570.47 2227.5 1556.5 2255.11 1542.97Z"/><path d="M3188.51 1554.21 3281.35 1554.62 3281.33 1559.2 3188.49 1558.79ZM3276.82 1543.14 3304.26 1557.02 3276.7 1570.64Z"/><path d="M1695.01 1559.31 1612.41 1558.9 1612.43 1554.32 1695.03 1554.72ZM1616.93 1570.38 1589.5 1556.5 1617.07 1542.88Z"/><text font-family="Calibri,Calibri_MSFontService,sans-serif" font-weight="400" font-size="64" transform="matrix(1 0 0 1 1131.48 1281)">KG<tspan font-size="64" x="2567.62" y="0">KG</tspan></text><path d="M3.4375-4.55315e-06 3.43753 20.625-3.43747 20.625-3.4375 4.55315e-06ZM3.43754 27.5 3.43756 48.125-3.43744 48.125-3.43746 27.5ZM3.43757 55 3.4376 75.625-3.4374 75.625-3.43743 55ZM3.43761 82.5 3.43764 103.125-3.43736 103.125-3.43739 82.5ZM3.43765 110 3.43767 130.625-3.43733 130.625-3.43735 110ZM3.43768 137.5 3.43771 158.125-3.43729 158.125-3.43732 137.5ZM3.43772 165 3.43775 185.625-3.43725 185.625-3.43728 165ZM3.43775 192.5 3.43778 213.125-3.43722 213.125-3.43725 192.5ZM3.43779 220 3.43782 240.625-3.43718 240.625-3.43721 220ZM3.43783 247.5 3.43783 249.547-3.43717 249.547-3.43717 247.5ZM13.7503 244.964 0.000360892 272.464-13.7497 244.964Z" transform="matrix(1 0 0 -1 1167.5 1204.96)"/><path d="M3.4375-4.55497e-06 3.43753 20.625-3.43747 20.625-3.4375 4.55497e-06ZM3.43754 27.5 3.43756 48.125-3.43744 48.125-3.43746 27.5ZM3.43757 55 3.4376 75.625-3.4374 75.625-3.43743 55ZM3.43761 82.5 3.43764 103.125-3.43736 103.125-3.43739 82.5ZM3.43765 110 3.43767 130.625-3.43733 130.625-3.43735 110ZM3.43768 137.5 3.43771 158.125-3.43729 158.125-3.43732 137.5ZM3.43772 165 3.43775 185.625-3.43725 185.625-3.43728 165ZM3.43776 192.5 3.43778 213.125-3.43722 213.125-3.43724 192.5ZM3.43779 220 3.43782 240.625-3.43718 240.625-3.43721 220ZM3.43783 247.5 3.43783 249.438-3.43717 249.438-3.43717 247.5ZM13.7503 244.855 0.000360892 272.355-13.7497 244.855Z" transform="matrix(1 0 0 -1 3735.5 1204.86)"/><text fill="#0070C0" font-family="Calibri,Calibri_MSFontService,sans-serif" font-weight="400" font-size="64" transform="matrix(1 0 0 1 667.905 1000)">Graph <tspan font-size="64" x="174.579" y="0">space</tspan></text><path d="M3592.53 1234.16C3595.77 1234.16 3599.64 1235.58 3604.12 1238.41 3608.61 1241.25 3612.01 1242.67 3614.33 1242.67 3616.63 1242.67 3618.55 1242.06 3620.09 1240.85 3621.63 1239.63 3623.18 1237.74 3624.75 1235.17L3627.99 1237.36C3626.83 1239.76 3624.99 1242.19 3622.48 1244.63 3619.97 1247.08 3616.91 1248.3 3613.32 1248.3 3609.86 1248.3 3605.91 1246.88 3601.47 1244.05 3597.02 1241.21 3593.62 1239.79 3591.27 1239.79 3589.3 1239.79 3587.57 1240.41 3586.09 1241.66 3584.6 1242.9 3583.29 1244.71 3582.15 1247.09L3578.99 1245.3C3580.37 1242.11 3582.2 1239.46 3584.46 1237.34 3586.73 1235.22 3589.42 1234.16 3592.53 1234.16ZM3592.53 1218.07C3595.77 1218.07 3599.64 1219.49 3604.12 1222.32 3608.61 1225.16 3612.01 1226.58 3614.33 1226.58 3616.63 1226.58 3618.55 1225.97 3620.09 1224.76 3621.63 1223.54 3623.18 1221.65 3624.75 1219.08L3627.99 1221.27C3626.83 1223.68 3624.99 1226.1 3622.48 1228.55 3619.97 1230.99 3616.91 1232.21 3613.32 1232.21 3609.86 1232.21 3605.91 1230.79 3601.47 1227.96 3597.02 1225.12 3593.62 1223.7 3591.27 1223.7 3589.3 1223.7 3587.57 1224.32 3586.09 1225.57 3584.6 1226.81 3583.29 1228.62 3582.15 1231L3578.99 1229.21C3580.37 1226.03 3582.2 1223.37 3584.46 1221.25 3586.73 1219.13 3589.42 1218.07 3592.53 1218.07Z" fill-rule="evenodd"/><text fill="#000000" fill-opacity="0" font-family="Arial,Arial_MSFontService,sans-serif" font-size="30.2334" x="3578.99" y="1244.52">≈</text></g></svg>