<svg width="2072" height="1041" xmlns="http://www.w3.org/2000/svg" xmlns:xlink="http://www.w3.org/1999/xlink" overflow="hidden"><defs><clipPath id="clip0"><rect x="358" y="401" width="2072" height="1041"/></clipPath></defs><g clip-path="url(#clip0)" transform="translate(-358 -401)"><path d="M372 1172.5C372 1107.61 455.723 1055 559 1055 662.277 1055 746 1107.61 746 1172.5 746 1237.39 662.277 1290 559 1290 455.723 1290 372 1237.39 372 1172.5Z" fill="#4472C4" fill-rule="evenodd"/><text fill="#FFFFFF" font-family="Calibri,Calibri_MSFontService,sans-serif" font-weight="400" font-size="64" transform="matrix(1 0 0 1 462.222 1117)">Blowin<tspan font-size="64" x="177.925" y="0">’ </tspan><tspan font-size="64" x="21.6333" y="77">in the </tspan><tspan font-size="64" x="32.8167" y="154">wind</tspan></text><path d="M1027 1173.5C1027 1119.1 1095.5 1075 1180 1075 1264.5 1075 1333 1119.1 1333 1173.5 1333 1227.9 1264.5 1272 1180 1272 1095.5 1272 1027 1227.9 1027 1173.5Z" fill="#4472C4" fill-rule="evenodd"/><text fill="#FFFFFF" font-family="Calibri,Calibri_MSFontService,sans-serif" font-weight="400" font-size="64" transform="matrix(1 0 0 1 1128.68 1157)">Bob <tspan font-size="64" x="-22.9166" y="77">Dylan</tspan></text><path d="M403 576.5C403 521.548 472.396 477 558 477 643.604 477 713 521.548 713 576.5 713 631.452 643.604 676 558 676 472.396 676 403 631.452 403 576.5Z" fill="#4472C4" fill-rule="evenodd"/><text fill="#FFFFFF" font-family="Calibri,Calibri_MSFontService,sans-serif" font-weight="400" font-size="64" transform="matrix(1 0 0 1 494.075 598)">Song</text><path d="M1014 575C1014 497.128 1088.32 434 1180 434 1271.68 434 1346 497.128 1346 575 1346 652.872 1271.68 716 1180 716 1088.32 716 1014 652.872 1014 575Z" fill="#4472C4" fill-rule="evenodd"/><text fill="#FFFFFF" font-family="Calibri,Calibri_MSFontService,sans-serif" font-weight="400" font-size="64" transform="matrix(1 0 0 1 1106.8 519)">Like a <tspan font-size="64" x="-8.823" y="77">rolling </tspan><tspan font-size="64" x="0.481201" y="154">stone</tspan></text><path d="M600 801.5C600 745.443 704.989 700 834.5 700 964.011 700 1069 745.443 1069 801.5 1069 857.557 964.011 903 834.5 903 704.989 903 600 857.557 600 801.5Z" fill="#4472C4" fill-rule="evenodd"/><text fill="#FFFFFF" font-family="Calibri,Calibri_MSFontService,sans-serif" font-weight="400" font-size="64" transform="matrix(1 0 0 1 733.277 785)">Tangled <tspan font-size="64" x="-28.5771" y="77">up in blue</tspan></text><path d="M665.418 730.309 664.438 670.47 671.312 670.357 672.292 730.196ZM654.202 675.222 667.5 647.5 681.698 674.771Z" fill="#7030A0"/><path d="M556.6 1055.63 555.156 699.43 562.03 699.402 563.475 1055.6ZM544.862 704.056 558.5 676.5 572.361 703.944Z" fill="#7030A0"/><path d="M0.0185568-3.43745 278.134-1.93606 278.097 4.93884-0.0185568 3.43745ZM273.607-12.2732 301.032 1.6251 273.458 15.2264Z" fill="#7030A0" transform="matrix(-1 0 0 1 1014.53 575.5)"/><path d="M1183.94 716.5 1183.94 1052.62 1177.06 1052.62 1177.06 716.5ZM1194.25 1048.04 1180.5 1075.54 1166.75 1048.04Z" fill="#7030A0"/><path d="M836.718 900.873 1056.54 1086.49 1052.1 1091.74 832.282 906.126ZM1059.69 1075.66 1071.83 1103.9 1041.94 1096.67Z" fill="#7030A0"/><text font-family="Calibri,Calibri_MSFontService,sans-serif" font-weight="400" font-size="64" transform="matrix(6.12323e-17 1 -1 6.12323e-17 1204.06 752)">composer</text><path d="M746.511 1170.06 1004.36 1170.9 1004.34 1177.78 746.489 1176.94ZM999.813 1160.58 1027.27 1174.42 999.723 1188.08Z" fill="#7030A0"/><text font-family="Calibri,Calibri_MSFontService,sans-serif" font-weight="400" font-size="64" transform="matrix(1 0 0 1 668.943 519)">is_a<tspan font-size="64" x="37.5389" y="163">is_a</tspan></text><text font-family="Calibri,Calibri_MSFontService,sans-serif" font-weight="400" font-size="64" transform="matrix(-1.83697e-16 -1 1 -1.83697e-16 529.866 917)">is_a</text><text font-family="Calibri,Calibri_MSFontService,sans-serif" font-weight="400" font-size="64" transform="matrix(0.769102 0.639126 -0.639126 0.769102 884.992 921)">composer</text><text font-family="Calibri,Calibri_MSFontService,sans-serif" font-weight="400" font-size="64" transform="matrix(1 0 0 1 747.573 1148)">composer</text><rect x="1447.5" y="779.5" width="442" height="149" stroke="#000000" stroke-width="4.58333" stroke-miterlimit="8" fill="#E2F0D9"/><text font-family="Calibri,Calibri_MSFontService,sans-serif" font-weight="400" font-size="64" transform="matrix(1 0 0 1 1482.33 875)">Pretrained LM</text><rect x="1528" y="401" width="361" height="27.9998" fill="#4472C4"/><rect x="1528" y="436" width="361" height="28.0002" fill="#4472C4"/><rect x="1528" y="471" width="361" height="28.0002" fill="#4472C4"/><rect x="1528" y="507" width="361" height="27.9998" fill="#4472C4"/><rect x="1528" y="542" width="361" height="27.9998" fill="#4472C4"/><path d="M1549 1037C1549 1029.27 1555.49 1023 1563.5 1023 1571.51 1023 1578 1029.27 1578 1037 1578 1044.73 1571.51 1051 1563.5 1051 1555.49 1051 1549 1044.73 1549 1037Z" fill="#4472C4" fill-rule="evenodd"/><path d="M1578 1035.85 1850.08 1035.85 1850.08 1038.15 1578 1038.15ZM1850.08 1037 1840.92 1027.83 1859.25 1037 1840.92 1046.17Z" fill="#7030A0"/><path d="M1860 1037C1860 1029.27 1866.49 1023 1874.5 1023 1882.51 1023 1889 1029.27 1889 1037 1889 1044.73 1882.51 1051 1874.5 1051 1866.49 1051 1860 1044.73 1860 1037Z" fill="#4472C4" fill-rule="evenodd"/><path d="M1549 1070.5C1549 1063.04 1555.49 1057 1563.5 1057 1571.51 1057 1578 1063.04 1578 1070.5 1578 1077.96 1571.51 1084 1563.5 1084 1555.49 1084 1549 1077.96 1549 1070.5Z" fill="#4472C4" fill-rule="evenodd"/><path d="M1578 1068.85 1850.08 1068.85 1850.08 1071.15 1578 1071.15ZM1850.08 1070 1840.92 1060.83 1859.25 1070 1840.92 1079.17Z" fill="#7030A0"/><path d="M1860 1070.5C1860 1063.04 1866.49 1057 1874.5 1057 1882.51 1057 1889 1063.04 1889 1070.5 1889 1077.96 1882.51 1084 1874.5 1084 1866.49 1084 1860 1077.96 1860 1070.5Z" fill="#4472C4" fill-rule="evenodd"/><path d="M1549 1104C1549 1096.27 1555.49 1090 1563.5 1090 1571.51 1090 1578 1096.27 1578 1104 1578 1111.73 1571.51 1118 1563.5 1118 1555.49 1118 1549 1111.73 1549 1104Z" fill="#4472C4" fill-rule="evenodd"/><path d="M1578 1102.85 1850.08 1102.85 1850.08 1105.15 1578 1105.15ZM1850.08 1104 1840.92 1094.83 1859.25 1104 1840.92 1113.17Z" fill="#7030A0"/><path d="M1860 1104C1860 1096.27 1866.49 1090 1874.5 1090 1882.51 1090 1889 1096.27 1889 1104 1889 1111.73 1882.51 1118 1874.5 1118 1866.49 1118 1860 1111.73 1860 1104Z" fill="#4472C4" fill-rule="evenodd"/><path d="M1549 1138C1549 1130.27 1555.49 1124 1563.5 1124 1571.51 1124 1578 1130.27 1578 1138 1578 1145.73 1571.51 1152 1563.5 1152 1555.49 1152 1549 1145.73 1549 1138Z" fill="#4472C4" fill-rule="evenodd"/><path d="M1578 1136.85 1850.08 1136.85 1850.08 1139.15 1578 1139.15ZM1850.08 1138 1840.92 1128.83 1859.25 1138 1840.92 1147.17Z" fill="#7030A0"/><path d="M1860 1138C1860 1130.27 1866.49 1124 1874.5 1124 1882.51 1124 1889 1130.27 1889 1138 1889 1145.73 1882.51 1152 1874.5 1152 1866.49 1152 1860 1145.73 1860 1138Z" fill="#4472C4" fill-rule="evenodd"/><path d="M1549 1171C1549 1163.27 1555.49 1157 1563.5 1157 1571.51 1157 1578 1163.27 1578 1171 1578 1178.73 1571.51 1185 1563.5 1185 1555.49 1185 1549 1178.73 1549 1171Z" fill="#4472C4" fill-rule="evenodd"/><path d="M1578 1169.85 1850.08 1169.85 1850.08 1172.15 1578 1172.15ZM1850.08 1171 1840.92 1161.83 1859.25 1171 1840.92 1180.17Z" fill="#7030A0"/><path d="M1860 1171C1860 1163.27 1866.49 1157 1874.5 1157 1882.51 1157 1889 1163.27 1889 1171 1889 1178.73 1882.51 1185 1874.5 1185 1866.49 1185 1860 1178.73 1860 1171Z" fill="#4472C4" fill-rule="evenodd"/><path d="M1549 1205C1549 1197.27 1555.49 1191 1563.5 1191 1571.51 1191 1578 1197.27 1578 1205 1578 1212.73 1571.51 1219 1563.5 1219 1555.49 1219 1549 1212.73 1549 1205Z" fill="#4472C4" fill-rule="evenodd"/><path d="M1578 1203.85 1850.08 1203.85 1850.08 1206.15 1578 1206.15ZM1850.08 1205 1840.92 1195.83 1859.25 1205 1840.92 1214.17Z" fill="#7030A0"/><path d="M1860 1205C1860 1197.27 1866.49 1191 1874.5 1191 1882.51 1191 1889 1197.27 1889 1205 1889 1212.73 1882.51 1219 1874.5 1219 1866.49 1219 1860 1212.73 1860 1205Z" fill="#4472C4" fill-rule="evenodd"/><path d="M363 559.336C363 476.308 430.308 409 513.336 409L1202.66 409C1285.69 409 1353 476.308 1353 559.336L1353 1160.66C1353 1243.69 1285.69 1311 1202.66 1311L513.336 1311C430.308 1311 363 1243.69 363 1160.66Z" stroke="#000000" stroke-width="10.3125" stroke-miterlimit="8" stroke-dasharray="30.9375 10.3125" fill="none" fill-rule="evenodd"/><rect x="1989.5" y="550.5" width="422" height="231" stroke="#000000" stroke-width="4.58333" stroke-miterlimit="8" fill="#E2F0D9"/><text font-family="Calibri,Calibri_MSFontService,sans-serif" font-weight="400" font-size="64" transform="matrix(1 0 0 1 2046.22 610)">Knowledge<tspan font-size="64" x="288.108" y="0">-</tspan><tspan font-size="64" x="-22.9624" y="77">enhanced </tspan><tspan font-size="64" x="248.6" y="77">LM </tspan><tspan font-size="64" x="-10.9083" y="154">(entity</tspan><tspan font-size="64" x="161.517" y="154">-</tspan><tspan font-size="64" x="180.996" y="154">wise)</tspan></text><rect x="1989.5" y="910.5" width="422" height="231" stroke="#000000" stroke-width="4.58333" stroke-miterlimit="8" fill="#E2F0D9"/><text font-family="Calibri,Calibri_MSFontService,sans-serif" font-weight="400" font-size="64" transform="matrix(1 0 0 1 2046.22 970)">Knowledge<tspan font-size="64" x="288.108" y="0">-</tspan><tspan font-size="64" x="-22.9624" y="77">enhanced </tspan><tspan font-size="64" x="248.6" y="77">LM </tspan><tspan font-size="64" x="-4.33118" y="154">(triple</tspan><tspan font-size="64" x="154.94" y="154">-</tspan><tspan font-size="64" x="174.419" y="154">wise)</tspan></text><path d="M1368 479.844 1498.39 479.844 1498.39 490.157 1368 490.156ZM1493.24 469.532 1524.17 485 1493.24 500.469Z"/><path d="M1390 1101.84 1515.78 1101.84 1515.78 1112.16 1390 1112.16ZM1510.62 1091.53 1541.56 1107 1510.62 1122.47Z"/><text font-family="Calibri,Calibri_MSFontService,sans-serif" font-weight="400" font-size="64" transform="matrix(1 0 0 1 636.964 1386)">Knowledge graph<tspan font-size="64" x="994.087" y="-759">Entity</tspan><tspan font-size="64" x="909.868" y="-682">embedding</tspan><tspan font-size="64" x="1205.49" y="-682">s</tspan><tspan font-size="64" x="937.926" y="-82">Knowledge</tspan><tspan font-size="64" x="999.48" y="-5">triple</tspan><tspan font-size="64" x="1139.27" y="-5">s</tspan></text><path d="M1893.5 482.492 1981.31 640.177 1972.3 645.194 1884.49 487.508ZM1987.81 630.656 1989.34 665.211 1960.78 645.706Z"/><path d="M4.54991-2.42596 92.7633 163.019 83.6635 167.871-4.54991 2.42596ZM99.4372 153.618 100.343 188.195 72.1378 168.173Z" transform="matrix(1 0 0 -1 1889 854.195)"/><path d="M1893.45 851.398 1980.79 1000.84 1971.88 1006.04 1884.55 856.602ZM1987.09 991.186 1989.34 1025.7 1960.38 1006.8Z"/><path d="M3.60677-3.68485 85.5257 76.4982 78.3122 83.8679-3.60677 3.68485ZM89.0544 65.5217 100.343 98.2169 67.4138 87.6308Z" transform="matrix(1 0 0 -1 1889 1123.22)"/></g></svg>