<svg width="1210" height="812" xmlns="http://www.w3.org/2000/svg" xmlns:xlink="http://www.w3.org/1999/xlink" overflow="hidden"><defs><clipPath id="clip0"><rect x="836" y="907" width="1210" height="812"/></clipPath></defs><g clip-path="url(#clip0)" transform="translate(-836 -907)"><path d="M841 1197C841 1039.6 999.715 912 1195.5 912 1391.28 912 1550 1039.6 1550 1197 1550 1354.4 1391.28 1482 1195.5 1482 999.715 1482 841 1354.4 841 1197Z" stroke="#000000" stroke-width="10.3125" stroke-miterlimit="8" fill="none" fill-rule="evenodd"/><path d="M1333 1197C1333 1039.6 1491.49 912 1687 912 1882.51 912 2041 1039.6 2041 1197 2041 1354.4 1882.51 1482 1687 1482 1491.49 1482 1333 1354.4 1333 1197Z" stroke="#FF0000" stroke-width="10.3125" stroke-miterlimit="8" fill="none" fill-rule="evenodd"/><path d="M1087 1192.5C1087 1079.01 1245.71 987 1441.5 987 1637.28 987 1796 1079.01 1796 1192.5 1796 1305.99 1637.28 1398 1441.5 1398 1245.71 1398 1087 1305.99 1087 1192.5Z" stroke="#00B0F0" stroke-width="10.3125" stroke-miterlimit="8" fill="none" fill-rule="evenodd"/><text font-family="Calibri,Calibri_MSFontService,sans-serif" font-weight="400" font-size="110" transform="matrix(1 0 0 1 1165.35 1624)">x<tspan fill="#FF0000" font-size="110" x="491.764" y="0">g</tspan><tspan fill="#00B0F0" font-size="110" x="245.882" y="0">h</tspan><tspan font-size="110" x="-171.471" y="-396">1</tspan><tspan font-size="110" x="63.0879" y="-391">2</tspan><tspan font-size="110" x="245.882" y="-391">3</tspan><tspan font-size="110" x="462.646" y="-391">4</tspan><tspan font-size="110" x="708.529" y="-391">5</tspan></text></g></svg>