<svg width="3156" height="432" xmlns="http://www.w3.org/2000/svg" xmlns:xlink="http://www.w3.org/1999/xlink" overflow="hidden"><defs><clipPath id="clip0"><rect x="457" y="1070" width="3156" height="432"/></clipPath></defs><g clip-path="url(#clip0)" transform="translate(-457 -1070)"><rect x="460.5" y="1150.5" width="270" height="169" stroke="#000000" stroke-width="4.58333" stroke-miterlimit="8" fill="none"/><text font-family="Calibri,Calibri_MSFontService,sans-serif" font-weight="400" font-size="64" transform="matrix(1 0 0 1 570.16 1218)">KI <tspan font-size="64" x="-74.548" y="77">process</tspan></text><rect x="1065.5" y="1150.5" width="270" height="169" stroke="#000000" stroke-width="4.58333" stroke-miterlimit="8" fill="none"/><text font-family="Calibri,Calibri_MSFontService,sans-serif" font-weight="400" font-size="64" transform="matrix(1 0 0 1 1164.26 1218)">MI <tspan font-size="64" x="-58.1854" y="77">change</tspan></text><rect x="1646.5" y="1150.5" width="543" height="169" stroke="#000000" stroke-width="4.58333" stroke-miterlimit="8" fill="none"/><text font-family="Calibri,Calibri_MSFontService,sans-serif" font-weight="400" font-size="64" transform="matrix(1 0 0 1 1709.82 1218)">T<tspan font-size="64" x="27.523" y="0">ransformation: </tspan><tspan font-size="64" x="-23.6729" y="77">GFT(NN(RGFT(</tspan><tspan font-family="DengXian,DengXian_MSFontService,sans-serif" font-size="64" x="354.429" y="77">•</tspan>)))</text><rect x="2504.5" y="1150.5" width="378" height="169" stroke="#000000" stroke-width="4.58333" stroke-miterlimit="8" fill="none"/><text font-family="Calibri,Calibri_MSFontService,sans-serif" font-weight="400" font-size="64" transform="matrix(1 0 0 1 2612.87 1218)">Graph <tspan font-size="64" x="-74.0437" y="77">convolution</tspan></text><rect x="3228.5" y="1150.5" width="379" height="169" stroke="#000000" stroke-width="4.58333" stroke-miterlimit="8" fill="none"/><text font-family="Calibri,Calibri_MSFontService,sans-serif" font-weight="400" font-size="64" transform="matrix(1 0 0 1 3337.69 1218)">Graph <tspan font-size="64" x="-40.7918" y="77">attention</tspan></text><path d="M740 1226.75 1032.2 1226.75 1032.2 1216 1059 1237.5 1032.2 1259 1032.2 1248.25 740 1248.25Z" fill-rule="evenodd"/><text font-family="Calibri,Calibri_MSFontService,sans-serif" font-weight="400" font-size="55" transform="matrix(1 0 0 1 826.328 1138)">can be <tspan font-size="55" x="-83.7604" y="66">formulated by</tspan><tspan font-size="55" x="590.55" y="0">can be </tspan><tspan font-size="55" x="521.41" y="66">simulated by</tspan><tspan font-size="55" x="1449.34" y="0">can be </tspan><tspan font-size="55" x="1381.07" y="66">simplified by</tspan><tspan font-size="55" x="2152.18" y="0">can be </tspan><tspan font-size="55" x="2066.36" y="66">interpreted by</tspan></text><path d="M1343 1226.75 1612.19 1226.75 1612.19 1216 1639 1237.5 1612.19 1259 1612.19 1248.25 1343 1248.25Z" fill-rule="evenodd"/><path d="M2197 1226.75 2469.2 1226.75 2469.2 1216 2496 1237.5 2469.2 1259 2469.2 1248.25 2197 1248.25Z" fill-rule="evenodd"/><path d="M2888 1226.75 3193.19 1226.75 3193.19 1216 3220 1237.5 3193.19 1259 3193.19 1248.25 2888 1248.25Z" fill-rule="evenodd"/><text font-family="Calibri,Calibri_MSFontService,sans-serif" font-weight="400" font-size="55" transform="matrix(1 0 0 1 1019.88 1387)">MI<tspan font-size="55" x="73.3333" y="0">is</tspan><tspan font-size="55" x="120.313" y="0">intractable</tspan><tspan font-size="55" x="671.209" y="1">Eigendecomposition </tspan><tspan font-size="55" x="708.082" y="67">for GFT(</tspan><tspan font-family="DengXian,DengXian_MSFontService,sans-serif" font-size="55" x="887.978" y="67">•</tspan><tspan font-size="55" x="909.748" y="67">) is slow</tspan><tspan font-size="55" x="1546.82" y="1">It</tspan><tspan font-size="55" x="1591.51" y="1">cannot be </tspan><tspan font-size="55" x="1464.96" y="67">interpreted directly</tspan><tspan font-size="55" x="2243.66" y="-4">Interpretation</tspan></text></g></svg>